<svg xmlns="http://www.w3.org/2000/svg">
  <symbol id="icon-menu" viewBox="0 0 24 24"><path d="M3 6h18M3 12h18M3 18h18" fill="none" stroke="currentColor" stroke-linecap="round" stroke-width="2" /></symbol>
  <symbol id="icon-close" viewBox="0 0 24 24"><path d="m6 6 12 12M18 6 6 18" fill="none" stroke="currentColor" stroke-linecap="round" stroke-width="2" /></symbol>
  <symbol id="icon-phone" viewBox="0 0 24 24"><path d="M7.2 3.5 5.3 4.4a2 2 0 0 0-1 2.3c1.6 6.4 6.6 11.4 13 13a2 2 0 0 0 2.3-1l.9-1.9-4-2.3-1.2 1.2a12.2 12.2 0 0 1-7-7l1.2-1.2-2.3-4Z" fill="none" stroke="currentColor" stroke-linejoin="round" stroke-width="1.8" /></symbol>
  <symbol id="icon-pin" viewBox="0 0 24 24"><path d="M20 10c0 5-8 11-8 11S4 15 4 10a8 8 0 1 1 16 0Z" fill="none" stroke="currentColor" stroke-linejoin="round" stroke-width="1.8" /><circle cx="12" cy="10" r="2.5" fill="none" stroke="currentColor" stroke-width="1.8" /></symbol>
  <symbol id="icon-instagram" viewBox="0 0 24 24"><rect x="3" y="3" width="18" height="18" rx="5" fill="none" stroke="currentColor" stroke-width="1.8" /><circle cx="12" cy="12" r="4" fill="none" stroke="currentColor" stroke-width="1.8" /><circle cx="17.5" cy="6.5" r="1" fill="currentColor" /></symbol>
  <symbol id="icon-facebook" viewBox="0 0 24 24"><path d="M14 21v-8h3l.5-3H14V8.1c0-.9.3-1.6 1.7-1.6H18V3.8c-.4-.1-1.3-.2-2.4-.2-2.5 0-4.1 1.5-4.1 4.3V10H8v3h3.5v8H14Z" fill="currentColor" /></symbol>
</svg>
